<?xml version="1.0" encoding="UTF-8" standalone="no"?>
<!-- Generator: Adobe Illustrator 21.0.2, SVG Export Plug-In . SVG Version: 6.00 Build 0)  -->

<svg
   xmlns:dc="http://purl.org/dc/elements/1.1/"
   xmlns:cc="http://creativecommons.org/ns#"
   xmlns:rdf="http://www.w3.org/1999/02/22-rdf-syntax-ns#"
   xmlns:svg="http://www.w3.org/2000/svg"
   xmlns="http://www.w3.org/2000/svg"
   xmlns:sodipodi="http://sodipodi.sourceforge.net/DTD/sodipodi-0.dtd"
   xmlns:inkscape="http://www.inkscape.org/namespaces/inkscape"
   version="1.1"
   id="Layer_1"
   x="0px"
   y="0px"
   viewBox="0 0 451.29681 225.21476"
   enable-background="new 0 0 457.6 173.9"
   xml:space="preserve"
   sodipodi:docname="locaweb-logo.svg"
   width="451.29681"
   height="225.21475"
   inkscape:version="0.92.2 (5c3e80d, 2017-08-06)"><metadata
     id="metadata31"><rdf:RDF><cc:Work
         rdf:about=""><dc:format>image/svg+xml</dc:format><dc:type
           rdf:resource="http://purl.org/dc/dcmitype/StillImage" /><dc:title></dc:title></cc:Work></rdf:RDF></metadata><defs
     id="defs29" /><sodipodi:namedview
     pagecolor="#ffffff"
     bordercolor="#666666"
     borderopacity="1"
     objecttolerance="10"
     gridtolerance="10"
     guidetolerance="10"
     inkscape:pageopacity="0"
     inkscape:pageshadow="2"
     inkscape:window-width="1600"
     inkscape:window-height="837"
     id="namedview27"
     showgrid="false"
     fit-margin-top="0"
     fit-margin-left="0"
     fit-margin-right="0"
     fit-margin-bottom="0"
     inkscape:zoom="0.69274475"
     inkscape:cx="225.7"
     inkscape:cy="179.86475"
     inkscape:window-x="-8"
     inkscape:window-y="-8"
     inkscape:window-maximized="1"
     inkscape:current-layer="Layer_1" /><path
     d="m 0,88 c 0,1.9 0.5,2.4 2.3,2.4 h 12.6 c 1.9,0 2.3,-0.4 2.3,-2.3 V 2.5 c 0,-1.7 -0.5,-2.2 -2.1,-2.2 -4.2,0 -8.4,0 -12.6,0 C 0.3,0.3 0,0.7 0,2.9 0,2.9 0,73.8 0,88 Z"
     id="path2"
     inkscape:export-xdpi="10.636016"
     inkscape:export-ydpi="10.636016"
     inkscape:connector-curvature="0"
     style="clip-rule:evenodd;fill:#2a343e;fill-rule:evenodd" /><path
     d="m 410.3,24.9 c 3.5,-0.2 6.7,-0.4 10,-0.5 4.6,-0.1 9.3,-0.1 13.9,0.7 8.5,1.5 13.5,6.2 15.5,14.6 1,4.3 1.4,8.7 1.5,13.1 0.2,6.8 0.2,13.6 -1.1,20.4 -0.9,4.6 -2.5,8.9 -6.2,12.1 -2.8,2.4 -6.1,3.5 -9.6,4.2 -4.6,0.9 -9.3,1.2 -14,1 -5.5,-0.2 -11.1,-0.6 -16.6,-1 -2.8,-0.2 -5.5,-0.7 -8.3,-1.1 -1.5,-0.2 -2.1,-1 -2.3,-2.5 C 393,85.4 393,85 393,84.5 c 0,-27.1 0,-54.2 0,-81.4 0,-0.3 0,-0.6 0,-0.9 0.1,-1.9 0.4,-2.2 2.4,-2.2 h 12.3 c 2.2,0 2.5,0.3 2.5,2.5 0,7 0,14 0,20.9 v 1.5 z m 0,50.1 c 5.4,0.6 10.7,1.2 16.1,0.4 2.9,-0.4 5.2,-1.9 6.2,-4.7 0.5,-1.4 0.9,-2.9 1,-4.4 0.2,-5.1 0.2,-10.1 0.2,-15.2 0,-1.5 -0.3,-3 -0.6,-4.5 -1,-4.6 -3.4,-6.7 -8.1,-6.9 -4.8,-0.2 -9.5,-0.2 -14.3,-0.3 -0.1,0 -0.3,0.1 -0.5,0.1 z"
     id="path4"
     inkscape:export-xdpi="10.636016"
     inkscape:export-ydpi="10.636016"
     inkscape:connector-curvature="0"
     style="clip-rule:evenodd;fill:#f00843;fill-rule:evenodd" /><path
     d="m 194.7,51.8 c 0,-2.1 0.2,-4.2 0,-6.2 -0.5,-3.2 -3,-5.2 -6.6,-5.7 -1.6,-0.2 -3.3,-0.3 -5,-0.3 -6.4,0 -12.7,0 -19.1,0 -2.7,0 -2.8,-0.1 -2.8,-2.7 0,-2.8 0,-5.6 0,-8.5 0,-1.2 0.5,-1.8 1.7,-2 9.7,-1.8 19.4,-2.1 29.2,-1.3 4.1,0.3 8,1.2 11.7,3 4.7,2.4 7.2,6.4 7.9,11.5 0.3,1.9 0.4,3.9 0.4,5.9 0,12.8 0,25.5 0,38.3 0,0.3 0,0.5 0,0.7 -0.1,2.9 -1,3.7 -3.8,4.3 -8.2,1.6 -16.6,2.1 -25,2.2 -4.7,0 -9.5,-0.1 -14.2,-1 -6.6,-1.3 -10.8,-5.1 -12.1,-11.8 -1,-5.2 -1.1,-10.5 0.4,-15.6 1.6,-5.3 5.4,-8.4 10.7,-9.5 3.2,-0.7 6.6,-1 9.9,-1.2 5.2,-0.2 10.3,0 15.5,-0.1 z m 0.1,11.4 c -5.4,0 -10.7,-0.2 -16.1,0 -3.2,0.1 -4.8,1.9 -5.2,5 -0.2,1.2 -0.1,2.6 0.1,3.8 0.3,2.4 1.8,3.9 4.2,4.4 1.7,0.3 3.4,0.5 5.2,0.5 4,0.1 8,-0.2 11.9,-1.1 V 63.2 Z"
     id="path6"
     inkscape:export-xdpi="10.636016"
     inkscape:export-ydpi="10.636016"
     inkscape:connector-curvature="0"
     style="clip-rule:evenodd;fill:#2a343e;fill-rule:evenodd" /><path
     d="m 122.8,39.7 c -2.8,0.1 -5.6,0.8 -7.3,3.4 -1.3,1.8 -1.7,4 -1.9,6.1 -0.5,5.7 -0.5,11.5 0,17.2 0.2,2.5 0.7,5 2.6,7 1.8,2 4.2,2.6 6.7,2.6 6.7,0.1 13.3,0.1 20,0.2 0.4,0 0.8,0 1.2,0 2,0.1 2.4,0.5 2.5,2.5 0,2.7 0,5.4 0,8 0,1.9 -0.6,2.5 -2.5,2.9 -7.9,1.5 -15.9,1.7 -24,1.4 -4.8,-0.2 -9.6,-0.8 -14,-3 -3.6,-1.8 -6,-4.7 -7.5,-8.4 -1.8,-4.5 -2.4,-9.3 -2.4,-14.1 -0.1,-6.8 0.1,-13.7 0.4,-20.5 0.2,-3.7 1.1,-7.3 2.9,-10.7 1.9,-3.6 4.8,-6 8.6,-7.4 3.8,-1.4 7.7,-1.9 11.7,-2.1 6.8,-0.3 13.6,-0.2 20.3,0.7 1.5,0.2 3,0.4 4.5,0.7 1.2,0.2 1.9,0.9 1.9,2.1 0,3.1 0,6.3 0,9.4 0,1.2 -0.6,1.8 -1.8,1.8 h -11.3 c 0,0 -7.1,0.1 -10.6,0.2 z"
     id="path8"
     inkscape:export-xdpi="10.636016"
     inkscape:export-ydpi="10.636016"
     inkscape:connector-curvature="0"
     style="clip-rule:evenodd;fill:#2a343e;fill-rule:evenodd" /><path
     d="m 342.3,63.5 c 0.4,2.4 0.6,4.5 1.1,6.6 0.8,3.4 3.4,4.9 6.7,5.3 2.2,0.2 4.4,0.4 6.6,0.4 6.2,0 12.5,0 18.7,0 2.3,0 2.6,0.4 2.6,2.6 0,2.8 0,5.5 0,8.3 0,1.8 -0.4,2.2 -2.2,2.5 -9,1.6 -18.1,1.7 -27.2,1.3 -3.9,-0.1 -7.9,-0.7 -11.6,-2.2 -5.7,-2.2 -8.8,-6.7 -10.3,-12.4 -1.1,-4.1 -1.6,-8.3 -1.6,-12.5 0,-6 0.1,-12.1 0.5,-18.1 0.2,-3.5 1.1,-7 2.5,-10.2 2.4,-5.3 6.7,-8.2 12.2,-9.5 7.6,-1.7 15.4,-1.7 23.1,-0.7 2.6,0.3 5.3,0.9 7.7,1.8 5.4,2 8.3,6.3 9.8,11.6 1.3,4.6 1.6,9.4 1.8,14.1 0.1,2.7 0,5.4 0,8.1 0,1.9 -0.7,2.6 -2.6,2.8 -0.8,0.1 -1.6,0.1 -2.4,0.1 -11.2,0 -22.4,0 -33.6,0 h -1.8 z m 23.4,-11.4 c -0.3,-2.5 -0.6,-4.8 -1.1,-7.1 -0.5,-2.4 -2.1,-4.2 -4.5,-4.9 -4,-1.2 -8,-1.1 -12,0 -1.5,0.4 -2.7,1.3 -3.6,2.6 -1.9,2.9 -2,6.2 -2,9.5 h 23.2 z"
     id="path10"
     inkscape:export-xdpi="10.636016"
     inkscape:export-ydpi="10.636016"
     inkscape:connector-curvature="0"
     style="clip-rule:evenodd;fill:#f00843;fill-rule:evenodd" /><g
     id="g14"
     inkscape:export-xdpi="10.636016"
     inkscape:export-ydpi="10.636016"
     transform="translate(-3.1,-41.6)"><path
       d="M 89.4,95.9 C 89.3,91 89,85.9 87.7,80.8 86.2,75.3 83.2,71 77.8,68.7 c -3,-1.3 -6.3,-1.9 -9.6,-2.1 -4.5,-0.2 -9.1,-0.3 -13.6,-0.2 -4.1,0.1 -8.1,0.6 -12,2 -3.9,1.4 -6.9,3.9 -8.9,7.6 -2.2,4.2 -3,8.8 -3.3,13.5 -0.3,5.4 -0.4,10.8 -0.2,16.2 0.1,3.8 0.7,7.5 1.4,11.3 0.6,3.5 2.1,6.8 4.6,9.4 3.2,3.3 7.4,4.7 11.8,5.4 5.7,0.9 11.5,0.9 17.3,0.6 3.9,-0.2 7.8,-0.7 11.5,-2 3,-1.1 5.5,-2.8 7.4,-5.3 2.1,-2.8 3.1,-5.9 3.8,-9.2 1,-4.6 1.2,-9.2 1.2,-14.1 z m -17.2,5.9 c -0.2,2.7 -0.4,5.6 -0.9,8.4 -0.8,4.5 -2.9,6.4 -7.4,7.2 -3,0.5 -6.1,0.5 -9.1,-0.1 -3.9,-0.8 -5.9,-3 -6.7,-7.2 -0.9,-5.3 -0.8,-10.7 -0.6,-16.1 0.1,-1.6 0.3,-3.2 0.5,-4.7 0.9,-5.1 2.9,-7.3 8,-7.8 2.9,-0.3 5.9,-0.2 8.8,0.2 4,0.6 6.1,3.2 6.7,7.9 0.4,2.8 0.5,5.7 0.7,8.8 z"
       id="path12"
       inkscape:connector-curvature="0"
       style="clip-rule:evenodd;fill:#2a343e;fill-rule:evenodd" /></g><g
     id="g24"
     inkscape:export-xdpi="10.636016"
     inkscape:export-ydpi="10.636016"
     transform="translate(-3.1,-41.6)"><path
       d="m 240.5,68.9 c -0.3,-1.4 -0.6,-2 -1.7,-2 0,0 -0.1,0 -0.1,0 -0.1,0 -0.1,0 -0.2,0 -2.3,0 -9.6,0 -12.9,0 -0.5,0 -0.9,0 -1.2,0 0,0 0,0 0,0 -0.2,0 -0.4,0 -0.6,0 0,0 -0.1,0 -0.1,0 0,0 0,0 0,0 0,0 -0.1,0 -0.1,0 0,0 0,0 0,0 0,0 0,0 0,0 -0.1,0 -0.2,0 -0.3,0 0,0 0,0 -0.1,0 0,0 0,0 0,0 0,0 0,0 0,0 0,0 0,0 0,0 0,0 0,0 0,0 v 0 0 c -0.1,0 -0.1,0 -0.2,0.1 -0.1,0 -0.1,0.1 -0.1,0.1 0,0 0,0 0,0 0,0 0,0 0,0 0,0 -0.1,0.1 -0.1,0.1 v 0 c 0,0 0,0.1 -0.1,0.1 0,0 0,0 0,0 0,0.1 -0.1,0.1 -0.1,0.2 0,0 0,0 0,0 v 0 c 0,0 0,0 0,0 0,0 0,0.1 -0.1,0.2 0,0 0,0 0,0 0,0 0,0 0,0 0,0.1 0,0.2 0,0.2 0,0 0,0 0,0 0,0 0,0 0,0 0,0 0,0.1 0,0.2 0,0 0,0 0,0 0,0 0,0 0,0 0,0.2 0,0.4 0.1,0.6 0,0.3 0.1,0.6 0.2,0.9 0,0 0,0 0,0 0,0 0,0 0,0 0.8,2.9 4.9,17.8 8.7,31.4 v 0 c 0,0.1 0,0.1 0.1,0.2 3.4,12.1 6.5,23.4 6.8,24.4 1.2,3.5 3.6,6.4 7.4,6.4 0,0 2.8,-10.1 6.1,-22.2 -5,-17.4 -11,-39.2 -11.4,-40.9 z"
       id="path16"
       inkscape:connector-curvature="0"
       style="fill:#2a343e" /><path
       d="m 281.3,68.5 c 0,-0.2 -0.1,-0.3 -0.1,-0.5 -0.1,-0.3 -0.2,-0.5 -0.3,-0.6 0,0 0,0 0,-0.1 0,0 0,0 0,0 0,0 0,0 0,0 0,0 -0.1,-0.1 -0.1,-0.1 v 0 c 0,0 0,0.1 0.1,0.1 0,0 0,0 0,0 0,0.1 0.1,0.1 0.1,0.2 v 0 0 c 0,0 0,0 0,0 0,0 0,0 0,0 0,0 0,0.1 0.1,0.2 0,0 0,0 0,0 0,0 0,0 0,0 0,0.1 0,0.2 0,0.2 0,0 0,0 0,0 0,0 0,0 0,0 0,0 0,0.1 0,0.2 0,0 0,0 0,0 0,0 0,0 0,0 0,0.2 0,0.4 -0.1,0.6 0,0.3 -0.1,0.6 -0.2,0.9 0,0 0,0 0,0 0,0 0,0 0,0 -0.8,2.9 -4.8,17.6 -8.6,31.1 0,0.1 0,0.2 0.1,0.3 v 0 c 0,0.1 0,0.1 0.1,0.2 3.4,12.1 6.5,23.4 6.8,24.4 1.2,3.5 3.6,6.4 7.4,6.4 0,0 1.3,-4.7 3.1,-11.4 0.7,-2.7 1.6,-5.7 2.4,-8.8 0.2,-0.6 0.3,-1.2 0.5,-1.9 C 287.9,93 282.1,71.5 281.3,68.5 Z"
       id="path18"
       inkscape:connector-curvature="0"
       style="fill:#2a343e" /><path
       d="m 322,68 c 0,0 0,0 0,0 0,0 0,0 0,0 0,-0.1 0,-0.1 0,-0.2 0,0 0,0 0,0 0,0 0,0 0,0 0,-0.1 0,-0.2 -0.1,-0.2 0,0 0,0 0,0 v 0 0 c 0,-0.1 -0.1,-0.1 -0.1,-0.2 0,0 0,0 0,0 0,0 0,-0.1 -0.1,-0.1 v 0 c 0,0 -0.1,-0.1 -0.1,-0.1 0,0 0,0 0,0 0,0 0,0 0,0 0,0 -0.1,-0.1 -0.1,-0.1 -0.1,0 -0.1,-0.1 -0.2,-0.1 v 0 0 c 0,0 0,0 0,0 0,0 0,0 0,0 0,0 0,0 0,0 0,0 0,0 0,0 0,0 0,0 -0.1,0 -0.1,0 -0.2,0 -0.3,0 0,0 0,0 0,0 0,0 0,0 0,0 -0.1,0 -0.1,0 -0.1,0 0,0 0,0 0,0 0,0 -0.1,0 -0.1,0 -0.2,0 -0.3,0 -0.6,0 0,0 0,0 0,0 -0.3,0 -0.7,0 -1.2,0 -3.3,0 -10.5,0 -12.9,0 -0.1,0 -0.1,0 -0.2,0 0,0 -0.1,0 -0.1,0 -1.1,0.1 -1.4,0.7 -1.7,2 -0.4,1.7 -6.4,23.6 -11.3,41.2 -0.2,0.6 -0.3,1.3 -0.5,1.9 -0.9,3.2 -1.7,6.2 -2.4,8.8 -1.9,6.8 -3.1,11.4 -3.1,11.4 v 0 h 12.1 v 0 c 3.8,0 6.3,-2.9 7.4,-6.4 0.3,-1 3.5,-12.3 6.8,-24.4 0,-0.1 0,-0.1 0.1,-0.2 v 0 c 3.8,-13.6 7.9,-28.5 8.7,-31.4 0,0 0,0 0,0 0,0 0,0 0,0 0.1,-0.3 0.2,-0.6 0.2,-0.9 0,-0.2 0.1,-0.4 0.1,-0.6 0,0 0,0 0,0 0,0 0,0 0,0 C 322,68.1 322,68 322,68 Z"
       id="path20"
       inkscape:connector-curvature="0"
       style="fill:#f00843" /><path
       d="m 281.1,68 c 0,0 0,0 0,0 0,0 0,0 0,0 0,-0.1 0,-0.1 0,-0.2 0,0 0,0 0,0 0,0 0,0 0,0 0,-0.1 0,-0.2 -0.1,-0.2 0,0 0,0 0,0 v 0 0 c 0,-0.1 -0.1,-0.1 -0.1,-0.2 0,0 0,0 0,0 0,0 0,-0.1 -0.1,-0.1 v 0 c 0,0 -0.1,-0.1 -0.1,-0.1 0,0 0,0 0,0 0,0 0,0 0,0 0,0 -0.1,-0.1 -0.1,-0.1 -0.1,0 -0.1,-0.1 -0.2,-0.1 v 0 0 c 0,0 0,0 0,0 0,0 0,0 0,0 0,0 0,0 0,0 0,0 0,0 0,0 0,0 0,0 -0.1,0 -0.1,0 -0.2,0 -0.3,0 0,0 0,0 0,0 0,0 0,0 0,0 -0.1,0 -0.1,0 -0.1,0 0,0 0,0 0,0 0,0 -0.1,0 -0.1,0 -0.2,0 -0.3,0 -0.6,0 0,0 0,0 0,0 -0.3,0 -0.7,0 -1.2,0 -3.3,0 -10.5,0 -12.9,0 -0.1,0 -0.1,0 -0.2,0 0,0 -0.1,0 -0.1,0 -1.1,0.1 -1.4,0.7 -1.7,2 -0.4,1.7 -6.4,23.6 -11.3,41.1 -3.3,12.1 -6.1,22.1 -6.1,22.2 0,0 0,0 0.1,0 v 0 h 12.1 v 0 c 0,0 0,0 0.1,0 3.8,0 6.2,-2.9 7.4,-6.4 0.3,-1 3.5,-12.3 6.8,-24.4 0,-0.1 0,-0.1 0.1,-0.2 v 0 c 3.8,-13.6 7.9,-28.5 8.7,-31.4 0,0 0,0 0,0 0,0 0,0 0,0 0.1,-0.3 0.2,-0.6 0.2,-0.9 0,-0.2 0.1,-0.4 0.1,-0.6 0,0 0,0 0,0 0,0 0,0 0,0 -0.2,-0.3 -0.2,-0.4 -0.2,-0.4 z"
       id="path22"
       inkscape:connector-curvature="0"
       style="fill:#f00843" /></g>
</svg>